<svg version="1.1" id="Layer_1" xmlns="http://www.w3.org/2000/svg" xmlns:xlink="http://www.w3.org/1999/xlink" x="0px" y="0px"
	 width="100%" viewBox="0 0 225 225" enable-background="new 0 0 225 225" xml:space="preserve">
<path fill="#FEFEFE" opacity="1.000000" stroke="none" 
	d="
M147.000000,226.000000 
	C98.000000,226.000000 49.500008,226.000000 1.000006,226.000000 
	C1.000004,151.000000 1.000004,76.000015 1.000002,1.000017 
	C75.999992,1.000011 150.999985,1.000011 225.999969,1.000005 
	C225.999985,75.999985 225.999985,150.999969 226.000000,225.999969 
	C199.833328,226.000000 173.666672,226.000000 147.000000,226.000000 
M95.232941,71.725586 
	C95.067314,72.142181 94.901680,72.558769 93.994118,73.014870 
	C93.365089,73.790443 92.252487,74.530457 92.192383,75.347862 
	C91.956970,78.549126 91.672562,81.829628 92.124977,84.977409 
	C92.675354,88.806740 89.730385,89.630348 87.619278,90.035294 
	C83.406197,90.843437 79.009453,90.661606 74.697968,91.006310 
	C73.131531,91.131538 71.591927,91.592407 69.190643,91.904198 
	C54.081104,93.133919 43.664047,103.574730 42.133945,119.022591 
	C40.627907,134.227570 49.397663,147.977676 63.658470,151.363663 
	C69.544678,152.761230 75.874474,152.396561 82.008942,152.523743 
	C82.889153,152.541992 84.512131,150.861343 84.582184,149.880569 
	C84.874596,145.786621 84.705330,141.659714 84.705330,137.146469 
	C80.466286,137.146469 76.836533,137.220581 73.210762,137.131882 
	C64.133453,136.909866 57.933750,130.831894 57.892971,122.204697 
	C57.850727,113.267784 64.039360,107.158127 73.418060,106.955070 
	C77.024063,106.876999 80.633163,106.942345 84.884102,106.942345 
	C84.884102,102.533592 84.884102,98.741547 85.365135,95.147247 
	C85.796982,95.433167 86.228836,95.719086 86.636139,96.818428 
	C85.396545,106.923874 85.013931,106.523766 93.288597,106.375824 
	C93.504684,106.371964 93.728806,106.817345 93.769501,107.879837 
	C93.584732,122.564384 93.399963,137.248932 92.905647,152.582336 
	C90.936577,158.109390 86.009407,158.576920 81.123009,159.018707 
	C80.749161,163.916092 80.402298,168.459915 80.037857,173.234100 
	C91.667442,174.504333 99.895729,170.202774 106.400406,160.842758 
	C108.247414,158.554489 110.094414,156.266220 112.484871,153.617172 
	C113.018272,151.010025 114.492249,150.034668 117.817184,151.347336 
	C122.660477,151.670334 127.503761,151.993332 132.822906,152.348068 
	C132.822906,139.156708 132.822906,126.581345 133.022781,113.430374 
	C133.044922,113.026970 133.067047,112.623573 133.605804,111.757530 
	C139.448730,103.965256 146.963623,103.323059 154.003845,110.593597 
	C154.317032,111.067467 154.630219,111.541328 154.967346,112.742859 
	C155.253113,114.163902 155.538879,115.584953 155.665558,117.640053 
	C155.721481,118.068863 155.777405,118.497673 155.561890,119.399452 
	C155.638885,119.920891 155.715866,120.442337 155.450592,121.839584 
	C155.560333,127.574409 155.670074,133.309235 155.485260,139.918594 
	C155.485260,143.980835 155.485260,148.043076 155.485260,152.358307 
	C160.653946,152.358307 165.698242,152.358307 171.082260,152.358307 
	C171.082260,141.661636 170.911438,131.240280 171.169464,120.829552 
	C171.267548,116.872421 172.351654,112.939728 173.558273,108.824272 
	C174.027481,108.518982 174.496689,108.213684 175.711365,107.723900 
	C185.413605,102.373856 192.928864,106.532722 194.104492,118.655533 
	C194.154984,119.107155 194.205460,119.558784 194.105667,120.934990 
	C194.105667,131.349228 194.105667,141.763458 194.105667,152.635117 
	C198.233566,152.635117 201.716339,152.825119 205.169739,152.587677 
	C209.626663,152.281250 211.639481,153.891983 211.355957,158.572678 
	C211.074677,163.216141 211.294418,167.889938 211.294418,172.550430 
	C211.662628,153.984406 211.685532,135.418442 211.641266,116.852646 
	C211.633392,113.550598 211.346512,110.249214 211.333038,106.026268 
	C211.333038,89.477577 211.333038,72.928886 211.333038,56.380199 
	C210.919495,56.383892 210.505951,56.387585 210.092407,56.391281 
	C210.092407,73.254135 210.092407,90.116989 209.911484,107.586967 
	C209.758621,107.853966 209.605759,108.120956 209.452911,108.387962 
	C209.225204,108.241554 208.865234,108.144806 208.788925,107.941551 
	C206.048126,100.641579 201.844879,94.730713 193.326752,91.829964 
	C183.167465,88.775078 173.614487,88.927162 164.903046,97.334610 
	C163.672028,96.959373 162.193207,96.899773 161.249374,96.158752 
	C153.985825,90.456055 145.961075,88.689995 136.390381,91.056213 
	C135.234161,91.508064 134.077942,91.959923 132.203598,92.601181 
	C128.169159,96.159019 124.134720,99.716858 119.753448,102.535500 
	C118.848434,98.180725 117.943420,93.825951 117.033524,89.447693 
	C114.588310,88.958206 112.031349,88.446350 109.330688,87.107063 
	C109.508133,84.393272 109.685577,81.679482 110.661942,78.955719 
	C114.635017,78.319839 112.332550,75.125130 113.269379,72.869324 
	C113.269379,72.869324 113.639580,72.829712 114.579430,72.955620 
	C116.054039,72.963844 117.533813,72.895706 119.002274,72.994942 
	C123.026863,73.266899 124.238457,71.241425 123.709671,67.549797 
	C123.364815,65.142303 123.390945,62.670288 122.899506,60.300034 
	C122.657486,59.132790 121.618362,58.130825 121.000000,57.000000 
	C121.000000,57.000000 120.939445,57.054241 120.993828,56.328274 
	C118.789330,53.562538 112.569870,53.960106 110.008324,56.996708 
	C110.008324,56.996708 110.032127,57.025356 109.452995,56.952328 
	C108.969795,57.223721 108.486595,57.495113 107.608597,58.037071 
	C107.608597,58.037071 107.130844,58.065735 106.288757,57.987797 
	C103.314697,58.296921 100.340637,58.606045 96.460266,59.009373 
	C97.268051,61.510883 97.861153,63.347557 98.265221,65.741920 
	C97.898476,66.186836 97.531731,66.631752 96.390114,67.055733 
	C95.331047,67.760796 94.271980,68.465858 93.212921,69.170921 
	C93.922012,69.800270 94.631111,70.429619 95.232941,71.725586 
M34.080406,112.500328 
	C34.046375,112.336250 34.012348,112.172173 34.130852,111.214401 
	C34.083923,110.141563 34.036999,109.068733 34.100719,107.501404 
	C34.054661,107.338898 34.008602,107.176392 34.480709,106.342979 
	C37.898869,106.101822 41.317028,105.860664 44.782822,105.616142 
	C44.782822,101.280327 44.782822,97.282616 44.782822,92.805817 
	C41.239643,92.805817 37.924992,92.805817 34.631927,92.805817 
	C34.525414,84.279175 35.742386,82.938049 45.543972,80.394020 
	C45.543972,75.821045 45.543972,71.248070 45.543972,66.426437 
	C32.487331,65.119095 24.149254,70.882698 18.461712,82.211151 
	C18.461712,73.641144 18.461712,65.071136 18.461712,56.501133 
	C18.010126,56.515976 17.558538,56.530823 17.106953,56.545670 
	C17.106953,88.028091 17.106953,119.510513 16.953337,151.920486 
	C16.953337,159.117661 16.953337,166.314850 16.953337,173.512024 
	C17.715843,173.500534 18.478348,173.489029 19.240854,173.477539 
	C19.240854,166.474686 19.240854,159.471848 20.034975,152.453232 
	C22.318920,152.518433 24.602800,152.636353 26.886822,152.639206 
	C34.460690,152.648651 34.460709,152.632751 34.042458,144.499588 
	C34.042458,144.499588 33.950016,144.016663 34.122250,143.090607 
	C34.073612,133.057785 34.024975,123.024963 34.080406,112.500328 
M89.574280,81.517303 
	C89.574280,81.517303 89.479652,81.571259 89.574280,81.517303 
z"/>
<path fill="#DF1F06" opacity="1.000000" stroke="none" 
	d="
M97.164978,67.076668 
	C97.531731,66.631752 97.898476,66.186836 98.649414,65.323349 
	C101.732681,62.625099 104.431763,60.345417 107.130844,58.065735 
	C107.130844,58.065735 107.608597,58.037071 108.091629,57.940697 
	C109.060478,57.571335 109.546303,57.298344 110.032127,57.025352 
	C110.032127,57.025356 110.008324,56.996708 110.470200,57.033524 
	C114.267860,57.064972 117.603653,57.059605 120.939445,57.054241 
	C120.939445,57.054241 121.000000,57.000000 120.924683,57.486740 
	C120.849373,62.215092 120.849373,66.456711 120.849373,70.362839 
	C118.157059,71.284027 115.898315,72.056870 113.639580,72.829712 
	C113.639580,72.829712 113.269379,72.869324 112.863602,73.011383 
	C112.078392,73.162125 111.698959,73.170799 110.989708,73.303986 
	C110.468163,74.322914 110.276436,75.217323 110.080292,76.090370 
	C110.075874,76.069000 110.113434,76.096802 109.793503,76.304581 
	C109.001396,81.232407 108.389282,85.946991 108.204391,90.678276 
	C108.175903,91.407379 110.198906,92.965240 111.122787,92.856956 
	C115.808075,92.307800 116.378571,94.845757 116.046280,98.519707 
	C115.871826,100.448555 116.015480,102.406166 116.015480,104.184769 
	C113.266487,104.915932 111.117584,105.487488 108.672806,106.343971 
	C108.296333,121.626160 108.215714,136.623428 108.304497,151.959442 
	C107.534714,155.145020 106.595528,157.991852 105.656349,160.838684 
	C99.895729,170.202774 91.667442,174.504333 80.037857,173.234100 
	C80.402298,168.459915 80.749161,163.916092 81.123009,159.018707 
	C86.009407,158.576920 90.936577,158.109390 93.324341,151.993103 
	C94.164474,149.658295 94.934441,147.916031 94.950981,146.166641 
	C95.061195,134.506500 95.045692,122.844597 94.965164,111.183998 
	C94.955643,109.804794 94.303467,108.430038 93.949188,107.053215 
	C93.728806,106.817345 93.504684,106.371964 93.288597,106.375824 
	C85.013931,106.523766 85.396545,106.923874 86.642319,95.985031 
	C87.193436,90.464149 91.946945,94.325165 93.934479,91.619827 
	C95.191628,83.919083 96.051216,76.358864 96.942764,68.508392 
	C97.038139,67.837646 97.101555,67.457153 97.164978,67.076668 
z"/>
<path fill="#767980" opacity="1.000000" stroke="none" 
	d="
M120.100288,103.274704 
	C124.134720,99.716858 128.169159,96.159019 132.505280,92.870728 
	C132.004257,97.573402 135.243073,98.442680 138.324936,98.898895 
	C141.076843,99.306267 143.979797,99.295921 146.730865,98.890907 
	C148.515671,98.628151 150.147446,97.325890 151.847794,96.489395 
	C150.308838,95.654099 148.854675,94.538506 147.213242,94.042068 
	C143.831375,93.019264 139.208832,96.318794 137.031677,91.068932 
	C145.961075,88.689995 153.985825,90.456055 161.249374,96.158752 
	C162.193207,96.899773 163.672028,96.959373 165.391174,97.597054 
	C167.833557,99.429581 169.917770,102.433243 171.714905,102.270317 
	C175.417603,101.934639 179.071075,100.134056 182.557388,98.529076 
	C189.420670,95.369423 192.868881,96.500595 196.143539,103.238686 
	C196.986816,104.973793 198.199692,106.529266 199.684891,108.861526 
	C201.345154,106.340240 202.297745,104.893646 202.449951,104.662491 
	C199.225281,99.917381 196.614975,96.076309 194.004669,92.235229 
	C201.844879,94.730713 206.048126,100.641579 208.788925,107.941551 
	C208.865234,108.144806 209.225204,108.241554 209.452911,108.387955 
	C209.605759,108.120956 209.758621,107.853966 210.276001,107.276764 
	C210.823151,106.960220 211.005798,106.953873 211.188461,106.947525 
	C211.346512,110.249214 211.633392,113.550598 211.641266,116.852646 
	C211.685532,135.418442 211.662628,153.984406 211.294418,172.550430 
	C211.294418,167.889938 211.074677,163.216141 211.355957,158.572678 
	C211.639481,153.891983 209.626663,152.281250 205.169739,152.587677 
	C201.716339,152.825119 198.233566,152.635117 194.105667,152.635117 
	C194.105667,141.763458 194.105667,131.349228 194.551208,120.479591 
	C196.330521,122.010712 198.345535,123.844902 198.832123,126.020866 
	C199.496780,128.993210 198.998062,132.225723 198.998062,135.311569 
	C203.674896,135.553894 204.004898,135.562225 203.911438,139.264816 
	C203.807205,143.393951 205.945847,144.407455 209.959641,144.484558 
	C209.959641,134.597778 210.473404,124.789658 209.727509,115.078285 
	C209.390457,110.689804 204.216568,109.988037 200.584778,110.056931 
	C198.928070,110.088371 195.105301,111.494720 196.531342,115.516991 
	C196.705948,116.009491 195.059296,117.147697 194.256668,117.986664 
	C192.928864,106.532722 185.413605,102.373856 175.163635,107.504692 
	C172.205276,106.281433 169.865204,104.969765 167.356262,104.394112 
	C165.956116,104.072853 163.908707,104.554695 162.852463,105.476303 
	C162.171265,106.070663 162.626389,108.136032 162.806992,109.511330 
	C163.104965,111.780533 163.900879,114.018867 163.944473,116.280663 
	C164.092102,123.939400 163.976959,131.602890 164.030731,139.264099 
	C164.038177,140.326355 164.430603,141.385910 164.644806,142.446716 
	C165.073990,142.413712 165.503189,142.380692 165.932373,142.347687 
	C166.270828,130.682892 164.457932,118.680077 170.651062,108.078125 
	C171.494415,108.409569 172.240387,108.702736 172.986343,108.995895 
	C172.351654,112.939728 171.267548,116.872421 171.169464,120.829552 
	C170.911438,131.240280 171.082260,141.661636 171.082260,152.358307 
	C165.698242,152.358307 160.653946,152.358307 155.485260,152.358307 
	C155.485260,148.043076 155.485260,143.980835 155.955444,139.447388 
	C157.153244,138.086349 158.454895,137.232269 158.512924,136.300735 
	C158.828278,131.237488 159.065552,126.143265 158.803299,121.087006 
	C158.730286,119.678963 156.866760,118.363777 155.824646,117.005997 
	C155.538879,115.584953 155.253113,114.163902 155.310181,112.366760 
	C156.249130,111.625412 156.845245,111.260155 157.441360,110.894897 
	C156.277420,110.602943 155.113464,110.310989 153.949524,110.019028 
	C146.963623,103.323059 139.448730,103.965256 133.299530,111.630661 
	C130.515091,108.749809 128.036911,105.995819 125.896187,103.616821 
	C123.343254,104.556213 121.431122,105.259811 119.561920,105.623672 
	C119.769997,104.614197 119.935143,103.944450 120.100288,103.274704 
M198.792496,141.922379 
	C198.677521,140.781921 198.562546,139.641464 198.447586,138.501007 
	C197.912216,138.647247 197.376862,138.793503 196.841507,138.939743 
	C197.338699,140.109863 197.835876,141.279984 198.792496,141.922379 
M199.313263,148.474045 
	C198.974838,149.020584 198.636414,149.567123 198.297989,150.113663 
	C198.572006,150.248505 198.846024,150.383347 199.120026,150.518188 
	C199.324890,149.982895 199.529755,149.447586 199.313263,148.474045 
M162.261627,102.815781 
	C162.375900,102.973267 162.490189,103.130760 162.604446,103.288246 
	C162.581360,103.069176 162.558273,102.850105 162.261627,102.815781 
M164.525314,100.629189 
	C164.471024,100.840752 164.416748,101.052307 164.362473,101.263870 
	C164.495865,101.127968 164.629242,100.992065 164.525314,100.629189 
M157.587967,107.516464 
	C157.587967,107.516464 157.477188,107.582565 157.587967,107.516464 
M125.587059,100.517212 
	C125.587059,100.517212 125.476303,100.583038 125.587059,100.517212 
z"/>
<path fill="#787A83" opacity="1.000000" stroke="none" 
	d="
M33.938557,144.980148 
	C34.460709,152.632751 34.460690,152.648651 26.886822,152.639206 
	C24.602800,152.636353 22.318920,152.518433 19.474968,152.153442 
	C18.312292,151.566757 17.709621,151.279846 17.106953,150.992935 
	C17.106953,119.510513 17.106953,88.028091 17.106953,56.545670 
	C17.558538,56.530823 18.010126,56.515976 18.461712,56.501133 
	C18.461712,65.071136 18.461712,73.641144 18.461712,82.211151 
	C24.149254,70.882698 32.487331,65.119095 45.543972,66.426437 
	C45.543972,71.248070 45.543972,75.821045 45.541397,80.397064 
	C35.742386,82.938049 34.525414,84.279175 34.631927,92.805817 
	C37.924992,92.805817 41.239643,92.805817 44.782822,92.805817 
	C44.782822,97.282616 44.782822,101.280327 44.782822,105.616142 
	C41.317028,105.860664 37.898869,106.101822 34.055721,106.769287 
	C33.750515,107.462357 33.870293,107.729126 33.990070,107.995895 
	C34.036999,109.068733 34.083923,110.141563 33.882393,111.695374 
	C33.748070,112.448280 33.862206,112.720207 33.976341,112.992142 
	C34.024975,123.024963 34.073612,133.057785 33.874619,143.637833 
	C33.564465,144.287903 33.425552,144.448700 33.452229,144.483856 
	C33.591133,144.666885 33.772179,144.817963 33.938557,144.980148 
z"/>
<path fill="#787C84" opacity="1.000000" stroke="none" 
	d="
M84.884102,94.949493 
	C84.884102,98.741547 84.884102,102.533592 84.884102,106.942345 
	C80.633163,106.942345 77.024063,106.876999 73.418060,106.955070 
	C64.039360,107.158127 57.850727,113.267784 57.892971,122.204697 
	C57.933750,130.831894 64.133453,136.909866 73.210762,137.131882 
	C76.836533,137.220581 80.466286,137.146469 84.705330,137.146469 
	C84.705330,141.659714 84.874596,145.786621 84.582184,149.880569 
	C84.512131,150.861343 82.889153,152.541992 82.008942,152.523743 
	C75.874474,152.396561 69.544678,152.761230 63.658470,151.363663 
	C49.397663,147.977676 40.627907,134.227570 42.133945,119.022591 
	C43.664047,103.574730 54.081104,93.133919 69.832047,92.265030 
	C72.578766,92.725494 74.719269,92.620613 76.780731,92.975227 
	C79.514175,93.445435 82.185875,94.274582 84.884102,94.949493 
z"/>
<path fill="#7A7C85" opacity="1.000000" stroke="none" 
	d="
M119.518982,105.963409 
	C121.431122,105.259811 123.343254,104.556213 125.896187,103.616821 
	C128.036911,105.995819 130.515091,108.749809 133.041214,111.861984 
	C133.067047,112.623573 133.044922,113.026970 132.545044,113.731720 
	C131.179855,115.921356 129.498718,117.829849 129.546188,119.694328 
	C129.724945,126.712852 130.582031,133.711365 130.927216,140.730057 
	C131.030884,142.837967 130.295822,144.987106 130.129013,145.999985 
	C126.601944,145.237122 123.673187,144.603668 120.272362,143.868103 
	C120.272362,137.546692 119.244728,130.407730 120.570290,123.736305 
	C121.818977,117.451752 122.653069,111.781967 119.561951,106.005737 
	C119.596428,105.995056 119.518982,105.963402 119.518982,105.963409 
z"/>
<path fill="#7A7C85" opacity="1.000000" stroke="none" 
	d="
M194.180573,118.321098 
	C195.059296,117.147697 196.705948,116.009491 196.531342,115.516991 
	C195.105301,111.494720 198.928070,110.088371 200.584778,110.056931 
	C204.216568,109.988037 209.390457,110.689804 209.727509,115.078285 
	C210.473404,124.789658 209.959641,134.597778 209.959641,144.484558 
	C205.945847,144.407455 203.807205,143.393951 203.911438,139.264816 
	C204.004898,135.562225 203.674896,135.553894 198.998062,135.311569 
	C198.998062,132.225723 199.496780,128.993210 198.832123,126.020866 
	C198.345535,123.844902 196.330521,122.010712 194.626343,120.017303 
	C194.205460,119.558784 194.154984,119.107155 194.180573,118.321098 
z"/>
<path fill="#767980" opacity="1.000000" stroke="none" 
	d="
M119.527481,106.016426 
	C122.653069,111.781967 121.818977,117.451752 120.570290,123.736305 
	C119.244728,130.407730 120.272362,137.546692 120.272362,143.868103 
	C123.673187,144.603668 126.601944,145.237122 130.129013,145.999985 
	C130.295822,144.987106 131.030884,142.837967 130.927216,140.730057 
	C130.582031,133.711365 129.724945,126.712852 129.546188,119.694328 
	C129.498718,117.829849 131.179855,115.921356 132.445099,114.019531 
	C132.822906,126.581345 132.822906,139.156708 132.822906,152.348068 
	C127.503761,151.993332 122.660477,151.670334 117.405960,150.788483 
	C116.932899,149.485565 116.871078,148.741531 116.875275,147.667603 
	C116.900604,146.893051 116.859917,146.448364 116.888687,145.539307 
	C116.978813,134.050430 116.999474,123.025948 117.202347,111.682663 
	C117.758667,109.932953 118.132774,108.502037 118.717224,106.942551 
	C119.121597,106.543671 119.321571,106.277817 119.527481,106.016426 
M120.411293,147.482330 
	C120.411293,147.482330 120.523232,147.415100 120.411293,147.482330 
z"/>
<path fill="#7A7C85" opacity="1.000000" stroke="none" 
	d="
M193.665710,92.032593 
	C196.614975,96.076309 199.225281,99.917381 202.449951,104.662491 
	C202.297745,104.893646 201.345154,106.340240 199.684891,108.861526 
	C198.199692,106.529266 196.986816,104.973793 196.143539,103.238686 
	C192.868881,96.500595 189.420670,95.369423 182.557388,98.529076 
	C179.071075,100.134056 175.417603,101.934639 171.714905,102.270317 
	C169.917770,102.433243 167.833557,99.429581 165.726440,97.468246 
	C173.614487,88.927162 183.167465,88.775078 193.665710,92.032593 
M188.202957,95.609093 
	C188.207230,95.214348 188.211502,94.819603 188.215790,94.424866 
	C188.051941,94.423401 187.745728,94.410919 187.744858,94.422058 
	C187.714462,94.814850 187.712723,95.209869 188.202957,95.609093 
z"/>
<path fill="#7A7C85" opacity="1.000000" stroke="none" 
	d="
M173.272308,108.910080 
	C172.240387,108.702736 171.494415,108.409569 170.651062,108.078125 
	C164.457932,118.680077 166.270828,130.682892 165.932373,142.347687 
	C165.503189,142.380692 165.073990,142.413712 164.644806,142.446716 
	C164.430603,141.385910 164.038177,140.326355 164.030731,139.264099 
	C163.976959,131.602890 164.092102,123.939400 163.944473,116.280663 
	C163.900879,114.018867 163.104965,111.780533 162.806992,109.511330 
	C162.626389,108.136032 162.171265,106.070663 162.852463,105.476303 
	C163.908707,104.554695 165.956116,104.072853 167.356262,104.394112 
	C169.865204,104.969765 172.205276,106.281433 174.790909,107.596939 
	C174.496689,108.213684 174.027481,108.518982 173.272308,108.910080 
z"/>
<path fill="#7A7C85" opacity="1.000000" stroke="none" 
	d="
M136.711029,91.062576 
	C139.208832,96.318794 143.831375,93.019264 147.213242,94.042068 
	C148.854675,94.538506 150.308838,95.654099 151.847794,96.489395 
	C150.147446,97.325890 148.515671,98.628151 146.730865,98.890907 
	C143.979797,99.295921 141.076843,99.306267 138.324936,98.898895 
	C135.243073,98.442680 132.004257,97.573402 132.864349,92.776031 
	C134.077942,91.959923 135.234161,91.508064 136.711029,91.062576 
z"/>
<path fill="#EFE6E0" opacity="1.000000" stroke="none" 
	d="
M85.124619,95.048370 
	C82.185875,94.274582 79.514175,93.445435 76.780731,92.975227 
	C74.719269,92.620613 72.578766,92.725494 70.256760,92.263000 
	C71.591927,91.592407 73.131531,91.131538 74.697968,91.006310 
	C79.009453,90.661606 83.406197,90.843437 87.619278,90.035294 
	C89.730385,89.630348 92.675354,88.806740 92.124977,84.977409 
	C91.672562,81.829628 91.956970,78.549126 92.192383,75.347862 
	C92.252487,74.530457 93.365089,73.790443 94.381630,73.411606 
	C94.358406,79.792351 93.947662,85.776360 93.536926,91.760361 
	C91.946945,94.325165 87.193436,90.464149 86.654587,95.578323 
	C86.228836,95.719086 85.796982,95.433167 85.124619,95.048370 
z"/>
<path fill="#7A7C85" opacity="1.000000" stroke="none" 
	d="
M155.745102,117.323029 
	C156.866760,118.363777 158.730286,119.678963 158.803299,121.087006 
	C159.065552,126.143265 158.828278,131.237488 158.512924,136.300735 
	C158.454895,137.232269 157.153244,138.086349 156.102722,139.010132 
	C155.670074,133.309235 155.560333,127.574409 155.848495,121.308731 
	C156.108719,120.160744 155.971024,119.543610 155.833328,118.926483 
	C155.777405,118.497673 155.721481,118.068863 155.745102,117.323029 
z"/>
<path fill="#B71B09" opacity="1.000000" stroke="none" 
	d="
M93.859344,107.466522 
	C94.303467,108.430038 94.955643,109.804794 94.965164,111.183998 
	C95.045692,122.844597 95.061195,134.506500 94.950981,146.166641 
	C94.934441,147.916031 94.164474,149.658295 93.479118,151.668671 
	C93.399963,137.248932 93.584732,122.564384 93.859344,107.466522 
z"/>
<path fill="#C3261B" opacity="1.000000" stroke="none" 
	d="
M108.968674,106.059052 
	C111.117584,105.487488 113.266487,104.915932 116.015480,104.184769 
	C116.015480,102.406166 115.871826,100.448555 116.046280,98.519707 
	C116.378571,94.845757 115.808075,92.307800 111.122787,92.856956 
	C110.198906,92.965240 108.175903,91.407379 108.204391,90.678276 
	C108.389282,85.946991 109.001396,81.232407 109.765305,76.666290 
	C109.992371,77.535378 109.927696,78.250534 109.863022,78.965691 
	C109.685577,81.679482 109.508133,84.393272 109.298317,87.918152 
	C109.444809,94.742691 114.628876,90.104378 116.698097,92.424492 
	C116.698097,97.066818 116.698097,101.935829 116.410263,106.781929 
	C115.744720,106.820648 115.367012,106.882271 114.580818,106.806015 
	C112.483040,106.844620 110.793747,107.021103 109.060516,106.914139 
	C109.000603,106.440155 108.984642,106.249603 108.968674,106.059052 
z"/>
<path fill="#F6E6E0" opacity="1.000000" stroke="none" 
	d="
M116.698097,106.804832 
	C116.698097,101.935829 116.698097,97.066818 116.698097,92.424492 
	C114.628876,90.104378 109.444809,94.742691 109.370163,88.331863 
	C112.031349,88.446350 114.588310,88.958206 117.033524,89.447693 
	C117.943420,93.825951 118.848434,98.180725 119.926865,102.905106 
	C119.935143,103.944450 119.769997,104.614197 119.561920,105.623672 
	C119.518982,105.963402 119.596428,105.995056 119.561951,106.005737 
	C119.321571,106.277817 119.121597,106.543671 118.262726,106.887993 
	C117.297974,106.909607 116.998032,106.857216 116.698097,106.804832 
z"/>
<path fill="#656667" opacity="1.000000" stroke="none" 
	d="
M211.260742,106.486893 
	C211.005798,106.953873 210.823151,106.960220 210.366455,106.973206 
	C210.092407,90.116989 210.092407,73.254135 210.092407,56.391281 
	C210.505951,56.387585 210.919495,56.383892 211.333038,56.380199 
	C211.333038,72.928886 211.333038,89.477577 211.260742,106.486893 
z"/>
<path fill="#F6E6E0" opacity="1.000000" stroke="none" 
	d="
M114.109505,72.892662 
	C115.898315,72.056870 118.157059,71.284027 120.849373,70.362839 
	C120.849373,66.456711 120.849373,62.215092 120.894661,57.513771 
	C121.618362,58.130825 122.657486,59.132790 122.899506,60.300034 
	C123.390945,62.670288 123.364815,65.142303 123.709671,67.549797 
	C124.238457,71.241425 123.026863,73.266899 119.002274,72.994942 
	C117.533813,72.895706 116.054039,72.963844 114.109505,72.892662 
z"/>
<path fill="#818286" opacity="1.000000" stroke="none" 
	d="
M17.030144,151.456711 
	C17.709621,151.279846 18.312292,151.566757 19.077908,152.161331 
	C19.240854,159.471848 19.240854,166.474686 19.240854,173.477539 
	C18.478348,173.489029 17.715843,173.500534 16.953337,173.512024 
	C16.953337,166.314850 16.953337,159.117661 17.030144,151.456711 
z"/>
<path fill="#F6E6E0" opacity="1.000000" stroke="none" 
	d="
M106.709801,58.026764 
	C104.431763,60.345417 101.732681,62.625099 98.743927,65.044510 
	C97.861153,63.347557 97.268051,61.510883 96.460266,59.009373 
	C100.340637,58.606045 103.314697,58.296921 106.709801,58.026764 
z"/>
<path fill="#F6E6E0" opacity="1.000000" stroke="none" 
	d="
M106.028381,160.840729 
	C106.595528,157.991852 107.534714,155.145020 108.625237,151.663544 
	C109.004013,149.036606 109.231453,147.044342 109.642944,145.243393 
	C109.945976,145.950760 110.064964,146.466812 110.151672,147.321228 
	C110.121513,148.112534 110.123650,148.565491 110.129753,149.338089 
	C110.747543,150.127396 111.361374,150.597046 111.970848,151.430817 
	C111.958138,152.522614 111.949776,153.250290 111.941422,153.977951 
	C110.094414,156.266220 108.247414,158.554489 106.028381,160.840729 
z"/>
<path fill="#F6E6E0" opacity="1.000000" stroke="none" 
	d="
M120.966637,56.691257 
	C117.603653,57.059605 114.267860,57.064972 110.475143,57.050102 
	C112.569870,53.960106 118.789330,53.562538 120.966637,56.691257 
z"/>
<path fill="#BB2C1D" opacity="1.000000" stroke="none" 
	d="
M93.934479,91.619827 
	C93.947662,85.776360 94.358406,79.792351 94.752594,73.391861 
	C94.901680,72.558769 95.067314,72.142181 95.501572,71.210838 
	C96.150406,70.063614 96.530602,69.431137 96.910797,68.798653 
	C96.051216,76.358864 95.191628,83.919083 93.934479,91.619827 
z"/>
<path fill="#FBFBFB" opacity="1.000000" stroke="none" 
	d="
M110.125786,149.018433 
	C110.123650,148.565491 110.121513,148.112534 110.485977,147.327881 
	C112.838142,147.329941 114.823700,147.663712 116.809258,147.997482 
	C116.871078,148.741531 116.932899,149.485565 117.032372,150.601929 
	C114.492249,150.034668 113.018272,151.010025 112.213150,153.797562 
	C111.949776,153.250290 111.958138,152.522614 111.944954,151.110840 
	C111.324203,149.957306 110.724991,149.487869 110.125786,149.018433 
z"/>
<path fill="#F6E6E0" opacity="1.000000" stroke="none" 
	d="
M110.262482,78.960709 
	C109.927696,78.250534 109.992371,77.535378 110.085236,76.458511 
	C110.113434,76.096802 110.075874,76.069000 110.347603,75.891998 
	C110.852730,74.869820 111.086128,74.024643 111.319527,73.179474 
	C111.698959,73.170799 112.078392,73.162125 112.742935,73.153137 
	C112.332550,75.125130 114.635017,78.319839 110.262482,78.960709 
z"/>
<path fill="#EFE6E0" opacity="1.000000" stroke="none" 
	d="
M96.942764,68.508392 
	C96.530602,69.431137 96.150406,70.063614 95.555206,70.877525 
	C94.631111,70.429619 93.922012,69.800270 93.212921,69.170921 
	C94.271980,68.465858 95.331047,67.760796 96.777542,67.066200 
	C97.101555,67.457153 97.038139,67.837646 96.942764,68.508392 
z"/>
<path fill="#7A7C85" opacity="1.000000" stroke="none" 
	d="
M153.976685,110.306313 
	C155.113464,110.310989 156.277420,110.602943 157.441360,110.894897 
	C156.845245,111.260155 156.249130,111.625412 155.298218,112.002930 
	C154.630219,111.541328 154.317032,111.067467 153.976685,110.306313 
z"/>
<path fill="#767980" opacity="1.000000" stroke="none" 
	d="
M155.697601,119.162964 
	C155.971024,119.543610 156.108719,120.160744 156.019623,120.870827 
	C155.715866,120.442337 155.638885,119.920891 155.697601,119.162964 
z"/>
<path fill="#F6E6E0" opacity="1.000000" stroke="none" 
	d="
M109.742561,56.988838 
	C109.546303,57.298344 109.060478,57.571335 108.289017,57.805416 
	C108.486595,57.495113 108.969795,57.223721 109.742561,56.988838 
z"/>
<path fill="#65696F" opacity="1.000000" stroke="none" 
	d="
M34.028374,112.746231 
	C33.862206,112.720207 33.748070,112.448280 33.806126,112.092224 
	C34.012348,112.172173 34.046375,112.336250 34.028374,112.746231 
z"/>
<path fill="#EFE6E0" opacity="1.000000" stroke="none" 
	d="
M89.526962,81.544281 
	C89.479652,81.571259 89.574280,81.517303 89.526962,81.544281 
z"/>
<path fill="#65696F" opacity="1.000000" stroke="none" 
	d="
M34.045395,107.748650 
	C33.870293,107.729126 33.750515,107.462357 33.796638,107.104736 
	C34.008602,107.176392 34.054661,107.338898 34.045395,107.748650 
z"/>
<path fill="#65696F" opacity="1.000000" stroke="none" 
	d="
M33.990509,144.739868 
	C33.772179,144.817963 33.591133,144.666885 33.452229,144.483856 
	C33.425552,144.448700 33.564465,144.287903 33.788502,144.100861 
	C33.950016,144.016663 34.042458,144.499588 33.990509,144.739868 
z"/>
<path fill="#C7160F" opacity="1.000000" stroke="none" 
	d="
M109.458900,145.052063 
	C109.231453,147.044342 109.004013,149.036606 108.455833,151.324799 
	C108.215714,136.623428 108.296333,121.626160 108.672806,106.343971 
	C108.984642,106.249603 109.000603,106.440155 109.094971,107.333511 
	C109.280411,109.711121 109.387436,111.385910 109.402115,113.516342 
	C109.359482,124.332008 109.409195,134.692032 109.458900,145.052063 
z"/>
<path fill="#C3261B" opacity="1.000000" stroke="none" 
	d="
M110.989708,73.303986 
	C111.086128,74.024643 110.852730,74.869820 110.352020,75.913361 
	C110.276436,75.217323 110.468163,74.322914 110.989708,73.303986 
z"/>
<path fill="#7A7C85" opacity="1.000000" stroke="none" 
	d="
M198.562775,142.186249 
	C197.835876,141.279984 197.338699,140.109863 196.841507,138.939743 
	C197.376862,138.793503 197.912216,138.647247 198.447586,138.501007 
	C198.562546,139.641464 198.677521,140.781921 198.562775,142.186249 
z"/>
<path fill="#7A7C85" opacity="1.000000" stroke="none" 
	d="
M199.523926,148.693176 
	C199.529755,149.447586 199.324890,149.982895 199.120026,150.518188 
	C198.846024,150.383347 198.572006,150.248505 198.297989,150.113663 
	C198.636414,149.567123 198.974838,149.020584 199.523926,148.693176 
z"/>
<path fill="#7A7C85" opacity="1.000000" stroke="none" 
	d="
M162.398407,102.723404 
	C162.558273,102.850105 162.581360,103.069176 162.604462,103.288246 
	C162.490189,103.130760 162.375900,102.973267 162.398407,102.723404 
z"/>
<path fill="#7A7C85" opacity="1.000000" stroke="none" 
	d="
M164.643967,100.742676 
	C164.629242,100.992065 164.495865,101.127968 164.362473,101.263870 
	C164.416748,101.052307 164.471024,100.840752 164.643967,100.742676 
z"/>
<path fill="#7A7C85" opacity="1.000000" stroke="none" 
	d="
M157.532578,107.549515 
	C157.477188,107.582565 157.587967,107.516464 157.532578,107.549515 
z"/>
<path fill="#7A7C85" opacity="1.000000" stroke="none" 
	d="
M125.531677,100.550125 
	C125.476303,100.583038 125.587059,100.517212 125.531677,100.550125 
z"/>
<path fill="#FEFEFE" opacity="1.000000" stroke="none" 
	d="
M109.642944,145.243393 
	C109.409195,134.692032 109.359482,124.332008 109.703064,113.420029 
	C111.066330,111.901787 112.036308,110.935493 112.994934,110.391327 
	C113.392426,121.901146 113.756363,132.991104 114.318581,144.070999 
	C114.353325,144.755753 115.949524,145.361282 116.819229,146.003677 
	C116.859917,146.448364 116.900604,146.893051 116.875275,147.667603 
	C114.823700,147.663712 112.838142,147.329941 110.518272,146.989502 
	C110.064964,146.466812 109.945976,145.950760 109.642944,145.243393 
z"/>
<path fill="#FBFBFB" opacity="1.000000" stroke="none" 
	d="
M116.888687,145.539307 
	C115.949524,145.361282 114.353325,144.755753 114.318581,144.070999 
	C113.756363,132.991104 113.392426,121.901146 113.320595,110.388672 
	C114.091309,109.953537 114.525017,109.943184 115.009232,110.261261 
	C115.713203,111.060280 116.366676,111.530869 117.020142,112.001457 
	C116.999474,123.025948 116.978813,134.050430 116.888687,145.539307 
z"/>
<path fill="#FEFEFE" opacity="1.000000" stroke="none" 
	d="
M117.202347,111.682663 
	C116.366676,111.530869 115.713203,111.060280 115.012154,109.889084 
	C114.972816,108.440277 114.981064,107.692085 114.989311,106.943893 
	C115.367012,106.882271 115.744720,106.820648 116.410263,106.781929 
	C116.998032,106.857216 117.297974,106.909607 118.052399,107.016556 
	C118.132774,108.502037 117.758667,109.932953 117.202347,111.682663 
z"/>
<path fill="#7A7C85" opacity="1.000000" stroke="none" 
	d="
M120.467262,147.448715 
	C120.523232,147.415100 120.411293,147.482330 120.467262,147.448715 
z"/>
<path fill="#767980" opacity="1.000000" stroke="none" 
	d="
M187.954956,95.606827 
	C187.712723,95.209869 187.714462,94.814850 187.744858,94.422058 
	C187.745728,94.410919 188.051941,94.423401 188.215790,94.424866 
	C188.211502,94.819603 188.207230,95.214348 187.954956,95.606827 
z"/>
<path fill="#F6E6E0" opacity="1.000000" stroke="none" 
	d="
M114.580818,106.806015 
	C114.981064,107.692085 114.972816,108.440277 114.961639,109.560654 
	C114.525017,109.943184 114.091309,109.953537 113.331947,109.966537 
	C112.036308,110.935493 111.066330,111.901787 109.795410,112.964394 
	C109.387436,111.385910 109.280411,109.711121 109.138924,107.616959 
	C110.793747,107.021103 112.483040,106.844620 114.580818,106.806015 
z"/>
<path fill="#FEFEFE" opacity="1.000000" stroke="none" 
	d="
M110.129753,149.338089 
	C110.724991,149.487869 111.324203,149.957306 111.949303,150.746719 
	C111.361374,150.597046 110.747543,150.127396 110.129753,149.338089 
z"/>
</svg>